    <svg xmlns="http://www.w3.org/2000/svg" width="24" height="25" viewBox="0 0 24 25" fill="none">
      <mask id="mask0_2072_1588" maskUnits="userSpaceOnUse" x="0" y="0" width="24" height="25">
        <rect y="0.571411" width="24" height="24" fill="#D9D9D9" />
      </mask>
      <g mask="url(#mask0_2072_1588)">
        <path d="M18.2377 6.70872C17.0905 6.18231 15.8603 5.79447 14.5739 5.57234C14.5505 5.56806 14.5271 5.57877 14.5151 5.6002C14.3568 5.88161 14.1815 6.24874 14.0588 6.53729C12.6753 6.33016 11.2989 6.33016 9.94374 6.53729C9.82098 6.24232 9.63936 5.88161 9.48043 5.6002C9.46836 5.57948 9.44496 5.56877 9.42154 5.57234C8.13593 5.79376 6.90567 6.1816 5.7577 6.70872C5.74776 6.71301 5.73925 6.72016 5.73359 6.72944C3.40004 10.2157 2.76079 13.6163 3.07439 16.9747C3.0758 16.9912 3.08503 17.0068 3.0978 17.0168C4.63741 18.1475 6.12878 18.8339 7.59246 19.2889C7.61588 19.296 7.64071 19.2874 7.65561 19.2682C8.00185 18.7953 8.31049 18.2968 8.5751 17.7726C8.59073 17.7418 8.57582 17.7054 8.5439 17.6933C8.05435 17.5075 7.5882 17.2812 7.13979 17.024C7.10433 17.0032 7.10149 16.9526 7.13412 16.9283C7.22848 16.8575 7.32286 16.784 7.41297 16.7097C7.42927 16.6962 7.45198 16.6933 7.47115 16.7018C10.417 18.0468 13.6061 18.0468 16.5172 16.7018C16.5364 16.6926 16.5591 16.6954 16.5761 16.709C16.6662 16.7833 16.7606 16.8575 16.8557 16.9283C16.8883 16.9526 16.8862 17.0032 16.8507 17.024C16.4023 17.2861 15.9362 17.5075 15.4459 17.6925C15.414 17.7047 15.3998 17.7418 15.4154 17.7726C15.6857 18.2961 15.9943 18.7946 16.3341 19.2675C16.3484 19.2874 16.3739 19.296 16.3973 19.2889C17.8681 18.8339 19.3595 18.1475 20.8991 17.0168C20.9125 17.0068 20.9211 16.9918 20.9225 16.9754C21.2978 13.0927 20.2939 9.72002 18.2611 6.73015C18.2562 6.72016 18.2477 6.71301 18.2377 6.70872ZM9.01502 14.9298C8.12813 14.9298 7.39735 14.1155 7.39735 13.1156C7.39735 12.1156 8.11395 11.3014 9.01502 11.3014C9.92315 11.3014 10.6469 12.1228 10.6327 13.1156C10.6327 14.1155 9.91606 14.9298 9.01502 14.9298ZM14.9961 14.9298C14.1092 14.9298 13.3784 14.1155 13.3784 13.1156C13.3784 12.1156 14.095 11.3014 14.9961 11.3014C15.9042 11.3014 16.6279 12.1228 16.6138 13.1156C16.6138 14.1155 15.9042 14.9298 14.9961 14.9298Z" fill="#606266" />
      </g>
    </svg>
