<svg xmlns="http://www.w3.org/2000/svg" width="24" height="25" viewBox="0 0 24 25" fill="none">
<mask id="mask0_2072_1594" style="mask-type:alpha" maskUnits="userSpaceOnUse" x="0" y="0" width="24" height="25">
<rect y="0.571411" width="24" height="24" fill="#D9D9D9"/>
</mask>
<g mask="url(#mask0_2072_1594)">
<path fill-rule="evenodd" clip-rule="evenodd" d="M20 12.5714C20 16.9897 16.4182 20.5714 12 20.5714C7.58172 20.5714 4 16.9897 4 12.5714C4 8.15313 7.58172 4.57141 12 4.57141C16.4182 4.57141 20 8.15313 20 12.5714ZM12.2866 10.4774C11.5086 10.801 9.95341 11.4709 7.62125 12.487C7.24254 12.6376 7.04416 12.7849 7.0261 12.9289C6.99558 13.1725 7.30046 13.2683 7.71563 13.3989C7.7721 13.4166 7.83062 13.435 7.89061 13.4545C8.29908 13.5873 8.84854 13.7426 9.13418 13.7488C9.39328 13.7544 9.68247 13.6476 10.0017 13.4283C12.1807 11.9574 13.3056 11.214 13.3762 11.1979C13.426 11.1866 13.495 11.1724 13.5418 11.214C13.5886 11.2556 13.584 11.3343 13.579 11.3554C13.5489 11.4842 12.3521 12.5969 11.7327 13.1726C11.5397 13.3521 11.4027 13.4794 11.3747 13.5085C11.312 13.5737 11.2481 13.6353 11.1866 13.6945C10.8072 14.0603 10.5226 14.3346 11.2024 14.7826C11.5291 14.9979 11.7905 15.1759 12.0513 15.3535C12.3361 15.5475 12.6202 15.7409 12.9878 15.9819C13.0814 16.0433 13.1708 16.107 13.2579 16.1691C13.5894 16.4054 13.8871 16.6177 14.255 16.5838C14.4688 16.5642 14.6896 16.3632 14.8018 15.7637C15.0668 14.3469 15.5878 11.2771 15.7082 10.0121C15.7186 9.90124 15.7054 9.7594 15.6947 9.69714C15.6841 9.63487 15.6618 9.54616 15.5809 9.48048C15.485 9.40271 15.337 9.38631 15.2709 9.38748C14.97 9.39277 14.5083 9.5533 12.2866 10.4774Z" fill="#606266"/>
</g>
</svg>
