<svg xmlns="http://www.w3.org/2000/svg" width="24" height="25" viewBox="0 0 24 25" fill="none">
<mask id="mask0_2072_1602" style="mask-type:alpha" maskUnits="userSpaceOnUse" x="0" y="0" width="24" height="25">
<rect y="0.571411" width="24" height="24" fill="#D9D9D9"/>
</mask>
<g mask="url(#mask0_2072_1602)">
<mask id="mask1_2072_1602" style="mask-type:luminance" maskUnits="userSpaceOnUse" x="3" y="6" width="18" height="14">
<path d="M21 6.57141H3V19.1788H21V6.57141Z" fill="white"/>
</mask>
<g mask="url(#mask1_2072_1602)">
<path fill-rule="evenodd" clip-rule="evenodd" d="M13.124 6.72875L18.994 9.66374C19.2652 9.79936 19.2695 10.185 19.0013 10.3265L11.3775 14.3502C10.9525 14.5745 10.4453 14.5801 10.0154 14.3651L5.22874 11.9718C4.64561 11.7375 3.99359 12.1654 3.99359 12.8098C3.99359 13.328 4.28634 13.8017 4.74979 14.0335L9.54876 16.4329C9.84171 16.1346 10.2496 15.9496 10.7007 15.9496C11.139 15.9496 11.5364 16.1242 11.8273 16.4076L17.8046 13.2529C17.7882 13.1606 17.7797 13.0657 17.7797 12.9688C17.7797 12.077 18.5026 11.3542 19.3943 11.3542C20.286 11.3542 21.0088 12.077 21.0088 12.9688C21.0088 13.8605 20.286 14.5834 19.3943 14.5834C18.9582 14.5834 18.5626 14.4106 18.2721 14.1297L12.2915 17.2861C12.3071 17.3765 12.3153 17.4694 12.3153 17.5642C12.3153 18.4559 11.5925 19.1788 10.7007 19.1788C9.80903 19.1788 9.08616 18.4559 9.08616 17.5642C9.08616 17.4817 9.09233 17.4007 9.10428 17.3216L4.23579 14.8873C3.47842 14.5086 3 13.7345 3 12.8878V12.4161C3 11.7712 3.35692 11.1793 3.92727 10.8783L11.7619 6.74372C12.1869 6.51937 12.6941 6.5138 13.124 6.72875ZM10.7007 18.1852C11.0437 18.1852 11.3217 17.9072 11.3217 17.5642C11.3217 17.2212 11.0437 16.9432 10.7007 16.9432C10.3577 16.9432 10.0797 17.2212 10.0797 17.5642C10.0797 17.9072 10.3577 18.1852 10.7007 18.1852ZM20.0153 12.9688C20.0153 13.3118 19.7372 13.5898 19.3943 13.5898C19.0513 13.5898 18.7733 13.3118 18.7733 12.9688C18.7733 12.6259 19.0513 12.3478 19.3943 12.3478C19.7372 12.3478 20.0153 12.6259 20.0153 12.9688Z" fill="#606266"/>
</g>
</g>
</svg>
