          <svg width="9.78em" height="1em" viewBox="0 0 137 14" fill="none"
            className="-translate-y-[2px]"
            xmlns="http://www.w3.org/2000/svg"
          >
            <g id="Group" fill="currentColor">
              <path d="M7.46597 13.7161C5.28503 13.7161 3.56246 13.1493 2.34584 12.0308C1.1094 10.8895 0.481934 9.22055 0.481934 7.07209C0.481934 6.06618 0.610072 5.18175 0.862379 4.44408C1.35511 3.01937 2.25337 1.96159 3.53208 1.30364C4.66945 0.722868 6.05384 0.429321 7.64826 0.429321C8.66938 0.429321 9.57425 0.517891 10.3378 0.693766C11.1 0.868376 11.7605 1.16572 12.3034 1.57567C13.0643 2.14758 13.6521 3.04341 14.0497 4.23784L14.0841 4.34286L11.6442 4.73257L11.6205 4.64906C11.3827 3.8127 10.9692 3.21296 10.3893 2.865C9.96527 2.61827 9.52009 2.45505 9.06171 2.37787C8.61126 2.30068 8.13438 2.26272 7.64694 2.26272C6.31671 2.26272 5.28503 2.47403 4.57962 2.89284C3.55586 3.5103 3.03671 4.9173 3.03671 7.07335C3.03671 8.42595 3.28109 9.50018 3.76061 10.2669C4.44224 11.345 5.68792 11.8916 7.46465 11.8916C7.95209 11.8916 8.46991 11.8157 9.00359 11.6664C9.53859 11.5158 10.0287 11.2956 10.4567 11.0135C11.4038 10.4011 12.0498 9.56218 12.3774 8.51831L12.4157 8.39685H6.78038V6.43565H14.4487V13.5048H12.3998V12.0168L12.2374 12.1535C12.0405 12.3192 11.8305 12.4698 11.6152 12.6039C10.4342 13.3416 9.03794 13.7161 7.46465 13.7161H7.46597Z" />
              <path d="M26.4444 13.5047L25.097 11.1323C24.8473 10.6971 24.5355 10.2783 24.1723 9.88728C23.3255 8.98892 22.451 8.53468 21.5739 8.53468H19.3956V13.5047H17.1367V0.639282H23.2687C24.3731 0.639282 25.3453 0.822749 26.1617 1.18589C26.8975 1.52245 27.4549 1.98935 27.8182 2.57264C28.1828 3.15594 28.3677 3.82148 28.3677 4.55029C28.3677 5.01465 28.3003 5.45877 28.1682 5.86746C27.7706 7.12136 26.764 7.95012 25.1775 8.33097L24.9556 8.38412L25.1485 8.50179C25.8512 8.92945 26.4761 9.61524 27.0031 10.5402L28.7006 13.5047H26.4444ZM19.3969 6.90246H23.27C23.9649 6.90246 24.5289 6.79238 24.9464 6.57602C25.7165 6.1977 26.1088 5.53216 26.1088 4.59584C26.1088 4.22385 26.023 3.89107 25.8539 3.60385C25.451 2.93831 24.5818 2.60175 23.2687 2.60175H19.3956V6.90246H19.3969Z" />
              <path d="M41.8489 13.5049L40.2215 10.1025H33.6747L32.0472 13.5049H29.5664L35.6826 0.639404H38.2122L44.3284 13.5049H41.8476H41.8489ZM34.602 8.14004H39.2941L36.9481 3.21174L34.602 8.14004Z" />
              <path d="M47.8604 13.5047V7.74768L42.7495 0.639282H45.1616L48.9938 6.14708L52.8194 0.639282H55.2407L50.1193 7.74641V13.5047H47.8604Z" />
              <path d="M61.353 13.5035V0.651978H67.2988C72.0067 0.651978 74.296 2.7473 74.296 7.05814C74.296 9.24835 73.7174 10.8856 72.5761 11.9257C71.4097 12.9721 69.6329 13.5035 67.2988 13.5035H61.353ZM62.7612 12.3812H67.3397C69.2195 12.3812 70.6369 11.8941 71.555 10.9325C72.3845 10.0569 72.8046 8.76754 72.8046 7.09736C72.7822 5.67391 72.4783 4.51997 71.8997 3.66716C71.0438 2.41073 69.5101 1.77429 67.3397 1.77429H62.7612V12.3799V12.3812Z" />
              <path d="M78.168 0.653198H76.769V13.5047H78.168V0.653198Z" />
              <path d="M87.9167 13.7313C85.708 13.7313 83.9749 13.1682 82.7648 12.056C81.5403 10.9249 80.9194 9.24962 80.9194 7.07838C80.9194 6.04844 81.0489 5.14882 81.3025 4.40609C81.7886 2.99783 82.6724 1.95523 83.9286 1.30866C85.0752 0.724101 86.4834 0.426758 88.1122 0.426758C89.1703 0.426758 90.1029 0.517859 90.8849 0.69753C91.6313 0.868344 92.2746 1.15683 92.799 1.55287C93.4437 2.03874 93.9654 2.77766 94.3499 3.75194L92.7739 4.00373C92.4701 3.15472 91.9866 2.52714 91.3354 2.1349C90.8202 1.83502 90.2773 1.63637 89.7238 1.54274C89.206 1.45544 88.6644 1.41115 88.1122 1.41115C86.5851 1.41115 85.383 1.66421 84.5416 2.16273C83.2787 2.92444 82.638 4.57944 82.638 7.07838C82.638 8.62457 82.9247 9.86581 83.4901 10.768C84.3236 12.0864 85.8124 12.7557 87.9154 12.7557C88.4873 12.7557 89.0937 12.6672 89.7159 12.4926C90.3433 12.3167 90.9179 12.0573 91.4265 11.7245C92.5692 10.9856 93.3393 9.96577 93.7184 8.69542L93.9232 8.00963H87.6947V6.88732H94.9126V13.5035H93.7396V11.2703L92.7977 12.0965C92.5784 12.2876 92.3446 12.4622 92.0989 12.614C90.914 13.3555 89.5058 13.7313 87.914 13.7313H87.9167Z" />
              <path d="M99.4341 0.653198H98.0352V13.5047H99.4341V0.653198Z" />
              <path d="M106.82 13.5035V1.77551H101.877V0.653198H113.152V1.77551H108.219V13.5035H106.82Z" />
              <path d="M123.95 13.5035L122.2 9.8443H114.496L112.746 13.5035H111.209L117.319 0.651978H119.377L125.487 13.5035H123.952H123.95ZM115.023 8.72199H121.673L118.348 1.7376L115.023 8.72199Z" />
              <path d="M127.571 13.5035V0.653198H128.981V12.3812H136.014V13.5035H127.571Z" />
            </g>
          </svg>