<svg xmlns="http://www.w3.org/2000/svg" width="24" height="25" viewBox="0 0 24 25" fill="none">
<mask id="mask0_2072_1597" style="mask-type:alpha" maskUnits="userSpaceOnUse" x="0" y="0" width="24" height="25">
<rect y="0.571411" width="24" height="24" fill="#D9D9D9"/>
</mask>
<g mask="url(#mask0_2072_1597)">
<path d="M11.9948 20.5589C16.4102 20.5589 19.9896 16.9799 19.9896 12.5651C19.9896 8.15032 16.4102 4.57141 11.9948 4.57141C7.57941 4.57141 4 8.15032 4 12.5651C4 16.9799 7.57941 20.5589 11.9948 20.5589Z" fill="#EFF0FE"/>
<path d="M5.39111 17.0742C5.39111 17.0742 10.6742 15.3437 19.9853 12.3077C19.9853 12.3077 20.4954 17.2796 15.341 19.8729C15.341 19.8729 12.7993 21.0911 10.0107 20.3097C10.0107 20.3097 7.23399 19.7856 5.39111 17.0742Z" fill="#606266"/>
</g>
</svg>
